<svg id="Layer_1" data-name="Layer 1" xmlns="http://www.w3.org/2000/svg" viewBox="0 0 44.07 83.16"><defs><style>.cls-1{fill:none;}.cls-2{fill:#fff;}</style></defs><title>face</title><rect class="cls-1" width="42.64" height="83.16"/><path class="cls-2" d="M38.23.12C37,.06,36,0,34.94,0s-2.33,0-3.5,0a20.49,20.49,0,0,0-9.9,2.68A16.42,16.42,0,0,0,14.3,11.6a20.11,20.11,0,0,0-1.14,5.08c-.11,1.2-.19,2.41-.2,3.62V30.69c0,.45,0,.39-.41.39H0V46.23H12.61c.38,0,.38,0,.38.37V83.15H28.66V46.6c0-.38,0-.39.4-.39H41.24c.39,0,.4,0,.45-.39.16-1.16.3-2.32.45-3.49s.33-2.55.5-3.82.32-2.55.49-3.82.29-2.26.44-3.38a1.88,1.88,0,0,0,0-.23H29c-.35,0-.35,0-.35-.35V20.47a8.77,8.77,0,0,1,.42-2.59,4.92,4.92,0,0,1,3.62-3.34,13.2,13.2,0,0,1,3.48-.41h7.89V.56C43.34.49,42.62.41,41.9.36,40.68.27,39.46.18,38.23.12Z" transform="translate(0 0.01)"/></svg>