<svg id="Layer_1" data-name="Layer 1" xmlns="http://www.w3.org/2000/svg" viewBox="0 0 100.04 99.97"><defs><style>.cls-1{fill:#fff;}.cls-2{fill:none;}</style></defs><title>insta</title><path class="cls-1" d="M51.63,9c13.35,0,14.93.05,20.2.29A27.73,27.73,0,0,1,81.11,11,16.55,16.55,0,0,1,90.6,20.5a27.73,27.73,0,0,1,1.72,9.28c.24,5.27.29,6.85.29,20.2s0,14.93-.29,20.2a27.73,27.73,0,0,1-1.72,9.28A16.55,16.55,0,0,1,81.11,89a27.73,27.73,0,0,1-9.28,1.72c-5.27.24-6.85.29-20.2.29s-14.93,0-20.2-.29A27.73,27.73,0,0,1,22.15,89a16.55,16.55,0,0,1-9.49-9.49,27.63,27.63,0,0,1-1.78-9.26c-.24-5.27-.29-6.85-.29-20.2s.05-14.93.29-20.2a27.73,27.73,0,0,1,1.72-9.28A16.55,16.55,0,0,1,22.09,11a27.73,27.73,0,0,1,9.28-1.72C36.64,9.07,38.22,9,51.57,9m0-9C38,0,36.29.08,31,.32A36.58,36.58,0,0,0,18.88,2.64,25.56,25.56,0,0,0,4.25,17.24,36.78,36.78,0,0,0,1.88,29.38c-.24,5.33-.3,7-.3,20.61s.1,15.29.3,20.65A36.78,36.78,0,0,0,4.2,82.78,25.6,25.6,0,0,0,18.88,97.37,36.78,36.78,0,0,0,31,99.69c5.33.24,7,.3,20.62.3s15.28-.06,20.61-.3a36.78,36.78,0,0,0,12.14-2.32A25.61,25.61,0,0,0,99,82.75a36.59,36.59,0,0,0,2.31-12.11c.24-5.33.3-7,.3-20.62s-.06-15.28-.3-20.61A36.78,36.78,0,0,0,99,17.27,25.57,25.57,0,0,0,84.38,2.64,36.78,36.78,0,0,0,72.24.32c-5.33-.24-7-.3-20.61-.3" transform="translate(-1.58 -0.02)"/><path class="cls-1" d="M51.63,24.32A25.68,25.68,0,1,0,77.31,50,25.68,25.68,0,0,0,51.63,24.32h0m0,42.34A16.67,16.67,0,1,1,68.3,50h0A16.67,16.67,0,0,1,51.63,66.64" transform="translate(-1.58 -0.02)"/><path class="cls-1" d="M84.32,23.3a6,6,0,1,1-6-6,6,6,0,0,1,6,6" transform="translate(-1.58 -0.02)"/><rect class="cls-2" width="99.97" height="99.97"/></svg>