<svg id="Layer_1" data-name="Layer 1" xmlns="http://www.w3.org/2000/svg" viewBox="0 0 612.49 116.7"><defs><style>.cls-1{fill:#ed1c24;}.cls-2{fill:#fff;}</style></defs><title>Mtransfer_logo 2019</title><path class="cls-1" d="M74.83,0H60.14c-1.38,2.12-3,4.6-4.89,7.38-3.88,5.77-8.8,12.94-14.78,21.55L29.21,13.3h0.12L20.33,0H4.61V0.11Q0,0.55,0,6.48V83.83a0.64,0.64,0,0,0,.77.66H13q5.49,0,5.49-6.26V30.76L34.17,53.39a2.37,2.37,0,0,0,1.76.66h8.46a3.09,3.09,0,0,0,2.09-.66l15.27-22.3h0.11V83.83c0,0.44.29,0.66,0.88,0.66H74.82q5.49,0,5.49-6.26V5.05Q80.32,0,74.83,0Z"/><path class="cls-2" d="M179.35,32.93l-0.11,2q-0.22,3.57-3.63,3.46h-12q-7,0-7,5.6V81q0,3.52-3.52,3.52h-9.56Q140,84.49,140,81V45.82q0-22.42,24.06-22.41a68.14,68.14,0,0,1,10.22.54q5.05,0.87,5.05,6.93v2.06Z"/><path class="cls-2" d="M505.68,32.93l-0.11,2q-0.22,3.57-3.63,3.46H490q-7,0-7,5.6V81q0,3.52-3.52,3.52h-9.56q-3.52,0-3.52-3.52V45.82q0-22.42,24.06-22.41a68.14,68.14,0,0,1,10.22.54q5.05,0.87,5.05,6.93v2.06Z"/><path class="cls-2" d="M612.49,32.93l-0.11,2q-0.22,3.57-3.63,3.46h-12q-7,0-7,5.6V81q0,3.52-3.52,3.52h-9.56q-3.52,0-3.52-3.52V45.82q0-22.42,24.06-22.41a68.14,68.14,0,0,1,10.22.54q5.05,0.87,5.05,6.93v2.06Z"/><path class="cls-2" d="M460.19,41.42q0,8.46-4.72,12.64a22.57,22.57,0,0,1-6.81,4.17,58.35,58.35,0,0,1-8.57,2l-19.23,3.4a8,8,0,0,0,5.71,5.06,34.79,34.79,0,0,0,8.13.66q5.27,0,11.1-.55l7.25-.44q2.86-.22,3.52,3.41L456.78,77q0.22,5.71-6,6.7-4.94.77-17.8,0.77-15.72,0-23-7.8t-7.31-23.62q0-15.71,7.09-23t22.69-7.31Q460.19,22.74,460.19,41.42Zm-16.81.22q0-4.62-10.11-4.62-7.8,0-10.66,2.64T419.54,50l14.94-2.76a33.07,33.07,0,0,0,6.7-1.65A4,4,0,0,0,443.38,41.64Z"/><path class="cls-2" d="M235.79,75.92q0,5.82-5.93,6.92a119,119,0,0,1-21.53,1.65q-27.91,0-27.91-19.34,0-13.19,17-17.47,1-.22,13.29-2.53,6.64-1.19,8.46-2.06A0.31,0.31,0,0,0,219,43a4.76,4.76,0,0,0-3.71-4.87,25.53,25.53,0,0,0-6.88-.65q-7.75,0-13.76.61l-6,.61c-0.15-.13-0.33-0.1-0.55.1q-2.73,0-3.27-3.19-0.11-.33-0.11-5.16-0.11-6.15,9.89-7.47,1.65-.22,14.61-0.22,26.59,0,26.59,22.75V75.92ZM219.2,69.44V57.64L201.41,61q-4.19.77-4.19,4.16,0,4.92,11.92,4.92A61.6,61.6,0,0,0,219.2,69.44Z"/><path class="cls-2" d="M358.64,64.82q0,19.67-26.48,19.67a122.49,122.49,0,0,1-19.45-1.21q-5.83-1-5.83-7.91v-2A9.86,9.86,0,0,0,307,71.3Q307.11,68,310.3,68a13.42,13.42,0,0,0,1.76.22l4.83,0.66a104.79,104.79,0,0,0,14.07.88q10.88,0,10.88-4,0-2.08-9-4.61Q326.89,59.55,321,58q-7.47-2.31-10.66-5.17-4.61-4.06-4.62-11.21,0-18.9,26.26-18.9,12.42,0,14.28.33,8.79,1.54,8.57,8.57,0,0.66-.11,3.85a2.93,2.93,0,0,1-3.3,3.18H351l-1.1-.22-4.17-.55a102.41,102.41,0,0,0-12.86-.66q-10.55,0-10.55,3.4,0,2.42,9.45,4.51,12.63,2.86,17.47,5.38Q358.64,55.6,358.64,64.82Z"/><path class="cls-2" d="M524.13,74.38q0,10.11-9.67,10.11T504.9,74.38q0-9.67,9.56-9.67T524.13,74.38Z"/><path class="cls-2" d="M132,82.58a54.17,54.17,0,0,1-15.41,1.91c-12.94,0-18-5.51-18-16.2V36.24H90.67c-1.69,0-1.91-.9-1.91-2.14V28c0-1.46.11-1.8,1.8-2.25l8.32-1.91,0.79-10.57c0.11-1.8.9-2.36,2.59-2.81L112.61,7.1c1.35-.34,2.25.23,2.25,2V24.2h12.37c1.69,0,1.8.68,1.8,1.91v8c0,1.46,0,2.14-1.8,2.14H114.86V64.81c0,4.39,2.14,5.74,6.52,5.74a69.19,69.19,0,0,0,8.44-.79c1.24-.22,1.8.11,1.91,1.12l1.35,9.45C133.19,81.34,133.64,82,132,82.58Z"/><path class="cls-2" d="M261,38V82.47c0,1.69-.22,2-2.36,2H247c-1.69,0-2.36-.34-2.36-2V34.21c0-5.06,1.24-7.87,7-9.11A135.8,135.8,0,0,1,267.94,24c20.92,0,30.59,7.87,30.59,29.13V82.47c0,1.69-.22,2-2.36,2h-11.7c-1.69,0-2.36-.34-2.36-2V52.1c0-9.79-2.93-14.62-13.5-14.62A43.71,43.71,0,0,0,261,38Z"/><path class="cls-2" d="M399.73,15.88a53.34,53.34,0,0,0-7.65-.79c-5.06,0-6.19,2.25-6.19,5.29v5.06h13.5c1.35,0,1.69.34,1.69,1.8V35.9c0,1.24-.11,1.8-1.91,1.8H385.89V82.47c0,1.8-.56,2-2.25,2h-11.7c-1.46,0-2.36-.22-2.36-2.14V37.7h-8.21c-1.69,0-1.69-.68-1.69-1.91V29.38c0-1.35.34-1.91,2-2.36l7.87-1.8V18.8c0-10.35,5.4-17.66,18.33-17.66a65.43,65.43,0,0,1,14.62,1.8c1.69,0.56,1.57,1.13,1.24,2.36l-1.91,9.34C401.53,16,401,16.22,399.73,15.88Z"/><path class="cls-2" d="M568.68,15.88a53.34,53.34,0,0,0-7.65-.79c-5.06,0-6.19,2.25-6.19,5.29v5.06h13.5c1.35,0,1.69.34,1.69,1.8V35.9c0,1.24-.11,1.8-1.91,1.8H554.85V82.47c0,1.8-.56,2-2.25,2H540.9c-1.46,0-2.36-.22-2.36-2.14V37.7h-8.21c-1.69,0-1.69-.68-1.69-1.91V29.38c0-1.35.34-1.91,2-2.36l7.87-1.8V18.8c0-10.35,5.4-17.66,18.33-17.66a65.43,65.43,0,0,1,14.62,1.8c1.69,0.56,1.58,1.13,1.24,2.36l-1.91,9.34C570.48,16,569.92,16.22,568.68,15.88Z"/><path class="cls-2" d="M24.51,101a2.1,2.1,0,0,1-.09.6l-4.11,14.23a1.13,1.13,0,0,1-1.24.85h-3a1.19,1.19,0,0,1-1.21-.94l-2.59-8.23-2.63,8.33a1.17,1.17,0,0,1-1.24.85H5.32a1.17,1.17,0,0,1-1.21-1l-4-14.14A2.65,2.65,0,0,1,0,101a0.84,0.84,0,0,1,1-.94H3.17a1.48,1.48,0,0,1,1.66,1.12l2.24,9.34L10,101a1.19,1.19,0,0,1,1.21-.94h2.24a1.24,1.24,0,0,1,1.33.94l2.78,9.55L20,101.19a1.48,1.48,0,0,1,1.63-1.12h1.87A0.84,0.84,0,0,1,24.51,101Z"/><path class="cls-2" d="M49.78,101a2,2,0,0,1-.09.6l-4.11,14.23a1.14,1.14,0,0,1-1.23.85h-3a1.19,1.19,0,0,1-1.21-.94l-2.59-8.23-2.63,8.33a1.17,1.17,0,0,1-1.24.85H30.59a1.17,1.17,0,0,1-1.21-1l-4-14.14a2.68,2.68,0,0,1-.12-0.58,0.84,0.84,0,0,1,1-.94h2.21a1.48,1.48,0,0,1,1.66,1.12l2.24,9.34L35.27,101a1.19,1.19,0,0,1,1.21-.94h2.24A1.24,1.24,0,0,1,40,101l2.78,9.55,2.49-9.37a1.48,1.48,0,0,1,1.63-1.12h1.87A0.84,0.84,0,0,1,49.78,101Z"/><path class="cls-2" d="M75,101a2.09,2.09,0,0,1-.09.6l-4.11,14.23a1.13,1.13,0,0,1-1.23.85h-3a1.19,1.19,0,0,1-1.2-.94l-2.59-8.23-2.63,8.33a1.17,1.17,0,0,1-1.24.85H55.85a1.17,1.17,0,0,1-1.21-1l-4-14.14a2.64,2.64,0,0,1-.12-0.58,0.84,0.84,0,0,1,1-.94h2.21a1.48,1.48,0,0,1,1.66,1.12l2.24,9.34L60.54,101a1.19,1.19,0,0,1,1.21-.94H64a1.24,1.24,0,0,1,1.33.94l2.78,9.55,2.48-9.37a1.49,1.49,0,0,1,1.63-1.12h1.87A0.84,0.84,0,0,1,75,101Z"/><path class="cls-2" d="M77.89,113.92q0,2.78-2.66,2.78t-2.63-2.78A2.64,2.64,0,1,1,77.89,113.92Z"/><path class="cls-2" d="M101.55,115.73a0.85,0.85,0,0,1-1,1H98a0.85,0.85,0,0,1-1-1v-9.4a2.63,2.63,0,0,0-.47-1.8,2.41,2.41,0,0,0-1.77-.5,9.16,9.16,0,0,0-2.08.24v11.46a0.86,0.86,0,0,1-1,1H89.07a0.86,0.86,0,0,1-1-1V106a2,2,0,0,0-.54-1.69,3.65,3.65,0,0,0-1.81-.3,9.21,9.21,0,0,0-2.08.21v11.48a0.86,0.86,0,0,1-1,1H80.06a0.85,0.85,0,0,1-1-1V102.34a1.78,1.78,0,0,1,1.66-1.91,31,31,0,0,1,5.65-.54,9.78,9.78,0,0,1,3.81.66,18.13,18.13,0,0,1,4.44-.66q6.89,0,6.89,6v9.82Z"/><path class="cls-2" d="M221.54,113.92q0,2.78-2.66,2.78t-2.63-2.78A2.64,2.64,0,1,1,221.54,113.92Z"/><path class="cls-2" d="M127.34,102.21l0,0.54a0.88,0.88,0,0,1-1,1H123q-1.93,0-1.93,1.54v10.18a0.85,0.85,0,0,1-1,1h-2.63a0.85,0.85,0,0,1-1-1v-9.67q0-6.17,6.62-6.16a18.73,18.73,0,0,1,2.81.15,1.66,1.66,0,0,1,1.39,1.91v0.57Z"/><path class="cls-2" d="M217.56,102.21l0,0.54a0.88,0.88,0,0,1-1,1h-3.29q-1.93,0-1.93,1.54v10.18a0.85,0.85,0,0,1-1,1h-2.63a0.85,0.85,0,0,1-1-1v-9.67q0-6.17,6.62-6.16a18.73,18.73,0,0,1,2.81.15,1.66,1.66,0,0,1,1.39,1.91v0.57Z"/><path class="cls-2" d="M247.35,102.21l0,0.54a0.88,0.88,0,0,1-1,1H243q-1.93,0-1.93,1.54v10.18a0.86,0.86,0,0,1-1,1H237.5a0.85,0.85,0,0,1-1-1v-9.67q0-6.17,6.62-6.16a18.73,18.73,0,0,1,2.81.15,1.66,1.66,0,0,1,1.39,1.91v0.57Z"/><path class="cls-2" d="M205.05,104.75a4.4,4.4,0,0,1-1.3,3.48,6.21,6.21,0,0,1-1.87,1.15,16,16,0,0,1-2.36.54l-5.29.94a2.2,2.2,0,0,0,1.57,1.39,9.56,9.56,0,0,0,2.24.18q1.45,0,3.05-.15l2-.12a0.91,0.91,0,0,1,1,.94l0.06,1.45a1.68,1.68,0,0,1-1.66,1.84,37.41,37.41,0,0,1-4.89.21q-4.32,0-6.33-2.15t-2-6.5q0-4.32,1.95-6.33t6.24-2Q205.05,99.61,205.05,104.75Zm-4.62.06q0-1.27-2.78-1.27a4.4,4.4,0,0,0-2.93.73,4,4,0,0,0-.85,2.84l4.11-.76a9.1,9.1,0,0,0,1.84-.45A1.11,1.11,0,0,0,200.43,104.81Z"/><path class="cls-2" d="M142.86,114.24a1.77,1.77,0,0,1-1.63,1.9,32.75,32.75,0,0,1-5.92.45q-7.68,0-7.68-5.32,0-3.63,4.68-4.8l3.66-.69a11.74,11.74,0,0,0,2.33-.57l-0.06,0a1.31,1.31,0,0,0-1-1.34,7,7,0,0,0-1.89-.18q-2.13,0-3.78.17l-1.65.17s-0.09,0-.15,0a0.88,0.88,0,0,1-.9-0.88q0-.09,0-1.42,0-1.69,2.72-2.06,0.45-.06,4-0.06,7.31,0,7.31,6.26v8.37Zm-4.56-1.78v-3.24l-4.89.93a1.15,1.15,0,0,0-1.15,1.14q0,1.35,3.28,1.35A17,17,0,0,0,138.3,112.46Z"/><path class="cls-2" d="M177.12,111.19q0,5.41-7.28,5.41a33.67,33.67,0,0,1-5.35-.33,1.89,1.89,0,0,1-1.6-2.18v-0.54a2.71,2.71,0,0,0,0-.57,0.82,0.82,0,0,1,.91-0.91,3.68,3.68,0,0,0,.48.06l1.33,0.18a28.81,28.81,0,0,0,3.87.24q3,0,3-1.09,0-.57-2.48-1.27-1.63-.45-3.26-0.88a8,8,0,0,1-2.93-1.42,3.89,3.89,0,0,1-1.27-3.08q0-5.2,7.22-5.2,3.42,0,3.93.09,2.42,0.42,2.36,2.36,0,0.18,0,1.06a0.8,0.8,0,0,1-.91.88H175l-0.3-.06-1.15-.15a28.19,28.19,0,0,0-3.54-.18q-2.9,0-2.9.94,0,0.67,2.6,1.24a22.28,22.28,0,0,1,4.81,1.48A4.3,4.3,0,0,1,177.12,111.19Z"/><path class="cls-2" d="M114.3,116.17a14.9,14.9,0,0,1-4.24.53c-3.56,0-4.95-1.52-4.95-4.45v-8.82h-2.17a0.47,0.47,0,0,1-.53-0.59v-1.67c0-.4,0-0.49.5-0.62l2.29-.53,0.22-2.91a0.75,0.75,0,0,1,.71-0.77l2.85-.93c0.37-.09.62,0.06,0.62,0.56v4.15H113c0.46,0,.5.19,0.5,0.53v2.2c0,0.4,0,.59-0.5.59h-3.4v7.86c0,1.21.59,1.58,1.79,1.58a19,19,0,0,0,2.32-.22c0.34-.06.49,0,0.53,0.31l0.37,2.6C114.64,115.83,114.77,116,114.3,116.17Z"/><path class="cls-2" d="M150.26,103.58V115.8c0,0.46-.06.56-0.65,0.56h-3.19c-0.46,0-.65-0.09-0.65-0.56V102.53c0-1.39.34-2.17,1.92-2.51a37.35,37.35,0,0,1,4.49-.31c5.75,0,8.41,2.17,8.41,8v8.07c0,0.46-.06.56-0.65,0.56h-3.22c-0.46,0-.65-0.09-0.65-0.56v-8.35c0-2.69-.8-4-3.71-4A12,12,0,0,0,150.26,103.58Z"/><path class="cls-2" d="M188.42,97.48a14.69,14.69,0,0,0-2.1-.22c-1.39,0-1.7.62-1.7,1.45v1.39h3.71c0.37,0,.46.09,0.46,0.49V103c0,0.34,0,.5-0.53.5h-3.65V115.8c0,0.5-.15.56-0.62,0.56h-3.22c-0.4,0-.65-0.06-0.65-0.59V103.49h-2.26c-0.46,0-.46-0.19-0.46-0.53V101.2a0.57,0.57,0,0,1,.56-0.65l2.17-.5V98.29c0-2.85,1.48-4.86,5-4.86a18,18,0,0,1,4,.49c0.46,0.15.43,0.31,0.34,0.65L189,97.14A0.39,0.39,0,0,1,188.42,97.48Z"/><path class="cls-2" d="M234.35,97.48a14.68,14.68,0,0,0-2.1-.22c-1.39,0-1.7.62-1.7,1.45v1.39h3.71c0.37,0,.46.09,0.46,0.49V103c0,0.34,0,.5-0.53.5h-3.65V115.8c0,0.5-.15.56-0.62,0.56h-3.22c-0.4,0-.65-0.06-0.65-0.59V103.49H223.8c-0.46,0-.46-0.19-0.46-0.53V101.2a0.57,0.57,0,0,1,.56-0.65l2.17-.5V98.29c0-2.85,1.49-4.86,5-4.86a18,18,0,0,1,4,.49c0.46,0.15.43,0.31,0.34,0.65l-0.53,2.57A0.39,0.39,0,0,1,234.35,97.48Z"/></svg>