<svg id="Layer_1" data-name="Layer 1" xmlns="http://www.w3.org/2000/svg" viewBox="0 0 71.85 99.97"><defs><style>.cls-1{fill:#b41d22;}</style></defs><title>point</title><path class="cls-1" d="M36.27,101a13.61,13.61,0,0,1-1.45-.46,5.17,5.17,0,0,1-2.28-1.83A328.9,328.9,0,0,1,12,67.28,120.29,120.29,0,0,1,3.46,49.22a41.44,41.44,0,0,1-2.24-8.71,28.27,28.27,0,0,1,.07-7A36.45,36.45,0,0,1,8.7,15.18c5.62-7.33,13-12.1,22.12-13.56C44.24-.56,55.47,3.73,64.33,14A36.21,36.21,0,0,1,72.7,33.57,31.73,31.73,0,0,1,70.94,48,108.09,108.09,0,0,1,63.7,64.1a281.06,281.06,0,0,1-17,27.15c-1.69,2.43-3.43,4.82-5.13,7.24A5.59,5.59,0,0,1,37.8,101l-.13.07h-1.4Zm.07-89.91a24.52,24.52,0,0,0-7.5,1.3,27,27,0,0,0-17.56,18,23.14,23.14,0,0,0,.16,15.45A93.21,93.21,0,0,0,16,56.45,244.13,244.13,0,0,0,34.7,86.69a2.72,2.72,0,0,0,4.61-.06A266.67,266.67,0,0,0,55.19,61.7a95.83,95.83,0,0,0,7.34-15.94,22,22,0,0,0,1.38-8.4,29.52,29.52,0,0,0-1.52-7.83A27.28,27.28,0,0,0,36.34,11.13Z" transform="translate(-1.04 -1.07)"/><path class="cls-1" d="M37.85,52a12.63,12.63,0,1,1,12.5-12.76v.08A12.57,12.57,0,0,1,37.89,52Z" transform="translate(-1.04 -1.07)"/></svg>