<svg id="Layer_1" data-name="Layer 1" xmlns="http://www.w3.org/2000/svg" viewBox="0 0 99.97 99.59"><defs><style>.cls-1{fill:#b41d22;}</style></defs><title>time</title><path class="cls-1" d="M6.79,28a12,12,0,0,0-.18,3.22l0,.36A22.13,22.13,0,0,0,9.19,40,22.67,22.67,0,0,0,20.57,50.35a21.8,21.8,0,0,0,10,1.69,22.27,22.27,0,0,0,15.54-7.56A21.82,21.82,0,0,0,51.54,33.4,22.77,22.77,0,0,0,33.63,7.09a21.15,21.15,0,0,0-13.69,1.7l-.31.13c-.2-.5-.38-1-.59-1.45a5,5,0,0,0-3.82-3,2.63,2.63,0,0,1-.62-.06L15.31,4a31.56,31.56,0,0,1,10-3.18c.75-.1,1.51-.14,2.26-.21l.34-.06h2.71l1.81.19A27.69,27.69,0,0,1,40,2.69,28.94,28.94,0,0,1,50,9.47a28.49,28.49,0,0,1,7.62,14.65,27.85,27.85,0,0,1-2.71,18.41A28.91,28.91,0,0,1,42.63,54.84,27.63,27.63,0,0,1,32.71,58a28.17,28.17,0,0,1-20.43-5.4A28.7,28.7,0,0,1,3.33,42a28,28,0,0,1-2.7-9.17c-.1-.71-.14-1.43-.21-2.14v-2.6h0c.06-.6.11-1.19.18-1.79a33.61,33.61,0,0,1,1.25-5.71A35.87,35.87,0,0,1,4.06,14.9c.16-.31.34-.61.51-.93-.8-.72-1.59-1.44-2.39-2.14-.41-.36-.84-.7-1.26-1l-.08-.1a1.17,1.17,0,0,1,.38-1.61A1.35,1.35,0,0,1,1.64,9,57,57,0,0,1,13.8,8.23h.63a1.23,1.23,0,0,1,1.31,1.15.27.27,0,0,1,0,.09c0,.94.09,1.88.09,2.82A51.43,51.43,0,0,1,15.52,19C15.4,20,15.2,21.1,15,22.16a1,1,0,0,1-1.22.7,1.06,1.06,0,0,1-.34-.16,10.52,10.52,0,0,1-.9-.75L10,19.77c-.22.25-.44.49-.63.74a14.31,14.31,0,0,0-2,5,8.09,8.09,0,0,0-.19.82Z" transform="translate(-0.38 -0.57)"/><path class="cls-1" d="M8.06,54l1.16.91a30.61,30.61,0,0,0,6.34,3.92.53.53,0,0,1,.18.28,1.31,1.31,0,0,1,0,.28V88.66a4.72,4.72,0,0,0,.31,2,3.44,3.44,0,0,0,3,2.16,5.61,5.61,0,0,0,.82,0H88.52a4.68,4.68,0,0,0,2-.32,3.44,3.44,0,0,0,2.13-3,6.17,6.17,0,0,0,0-.86V39H60.39c2.6-7.91,1.75-15.55-1.59-23.05H69.63v7.72A7.67,7.67,0,0,0,84.85,25,8.5,8.5,0,0,0,85,23.36V15.93h.29c1.49,0,3,0,4.47.06a11,11,0,0,1,6.88,2.86,11.18,11.18,0,0,1,3.58,6.81,12.44,12.44,0,0,1,.14,1.93V88.51a11.36,11.36,0,0,1-3.65,8.64A11.06,11.06,0,0,1,90,100.1c-.51,0-1,.06-1.55.06H19.51a11.18,11.18,0,0,1-8.41-3.58,11.06,11.06,0,0,1-3-6.38C8,89.59,8,89,8,88.37V54Z" transform="translate(-0.38 -0.57)"/><path class="cls-1" d="M73.46,17.82v-6A3.58,3.58,0,0,1,77,8.19a4.25,4.25,0,0,1,.71.06,3.46,3.46,0,0,1,3.35,3,5.5,5.5,0,0,1,.08.91V23.58A3.78,3.78,0,0,1,80,26.52a3.86,3.86,0,0,1-3.3.91,3.48,3.48,0,0,1-3.21-3.58v-.22c0-1.93,0-3.85,0-5.77h0Z" transform="translate(-0.38 -0.57)"/><path class="cls-1" d="M81.13,85.11H73.47V77.45h7.66Z" transform="translate(-0.38 -0.57)"/><path class="cls-1" d="M65.72,85.11H58.07V77.45h7.65Z" transform="translate(-0.38 -0.57)"/><path class="cls-1" d="M42.69,77.46h7.66v7.65H42.69Z" transform="translate(-0.38 -0.57)"/><path class="cls-1" d="M27.31,85.1V77.47H35V85.1Z" transform="translate(-0.38 -0.57)"/><path class="cls-1" d="M73.47,62.08h7.64v7.65H73.47Z" transform="translate(-0.38 -0.57)"/><path class="cls-1" d="M65.72,69.74H58.07V62.08h7.65Z" transform="translate(-0.38 -0.57)"/><path class="cls-1" d="M42.69,69.73V62.09h7.66v7.64Z" transform="translate(-0.38 -0.57)"/><path class="cls-1" d="M35,62.08v7.66H27.31V62.08Z" transform="translate(-0.38 -0.57)"/><path class="cls-1" d="M81.11,54.35H73.46V46.69h7.65Z" transform="translate(-0.38 -0.57)"/><path class="cls-1" d="M65.74,46.69v7.65H58.08V46.69Z" transform="translate(-0.38 -0.57)"/><path class="cls-1" d="M28.57,25.25a1.63,1.63,0,0,1,.54,0,.83.83,0,0,0,.88-.31q4.56-4.31,9.16-8.59A1.74,1.74,0,0,1,41,16a1.28,1.28,0,0,1,.91,1.21,1.73,1.73,0,0,1-.46,1.37l-4.3,5q-2,2.36-4.08,4.73a.52.52,0,0,0-.09.34,5.17,5.17,0,0,1-1.12,3.91.61.61,0,0,0-.13.31c-.2,3.19-.39,6.37-.58,9.56a2.07,2.07,0,0,1-2,1.66,3.57,3.57,0,0,1-.72-.1,1.38,1.38,0,0,1-1.14-1.34q-.39-4.52-.78-9a1,1,0,0,0-.5-.88,2.16,2.16,0,0,1-.67-.77,4.92,4.92,0,0,1-.62-3.78A3.62,3.62,0,0,1,28.57,25.25Z" transform="translate(-0.38 -0.57)"/></svg>