<svg id="Layer_1" data-name="Layer 1" xmlns="http://www.w3.org/2000/svg" viewBox="0 0 99.98 59.14"><defs><style>.cls-1{fill:#fff;}.cls-2{fill:none;}</style></defs><title>trip</title><path class="cls-1" d="M55.33,49.7,50,57.7l-5.21-7.77-.34-.27a4.22,4.22,0,0,1-.45.87A24,24,0,0,1,28.9,58.8,25,25,0,0,1,.18,33.39,24,24,0,0,1,4.35,20.32,2.42,2.42,0,0,0,4.66,18a29.2,29.2,0,0,0-4-7.67L0,9.36H14.81a3.63,3.63,0,0,0,1.76-.48,59.08,59.08,0,0,1,22.17-8A70.67,70.67,0,0,1,54.32.14a60.35,60.35,0,0,1,28,8.42,4.75,4.75,0,0,0,2.3.63c4.47.06,9,0,13.43,0h1.83c-.23.39-.36.63-.51.86a34.65,34.65,0,0,0-4,7.86,2.25,2.25,0,0,0,.25,2.21,25.56,25.56,0,0,1,3.77,8.64,23.69,23.69,0,0,1-.26,11.5c-2.39,9-8.08,15-16.88,17.68-10,3-18.71.3-25.95-7.19A12.67,12.67,0,0,1,55.33,49.7Zm39.6-15.52a19.21,19.21,0,1,0,0,.35v-.34Zm-49.84,0A19.91,19.91,0,1,0,25.09,54h.19A19.89,19.89,0,0,0,45.09,34.17ZM26.44,8.88c12.89,1.66,20.71,8.8,23.67,21.22,3-12.32,10.65-19.36,23.32-21.1A56.79,56.79,0,0,0,50.69,4.44,60.86,60.86,0,0,0,26.44,8.88Z"/><path class="cls-1" d="M75,46.19A12.32,12.32,0,1,1,87.31,33.87v.06A12.36,12.36,0,0,1,75,46.19Zm-.1-20.37A8,8,0,1,0,83,33.75a8,8,0,0,0-8.15-7.93Z"/><path class="cls-1" d="M24.84,21.54a12.26,12.26,0,1,1-.18,0Zm-.06,4.27a8,8,0,1,0,8.14,8,8.16,8.16,0,0,0-8.14-8Z"/><path class="cls-1" d="M74.94,29.78a4.07,4.07,0,1,1-4.06,4.12h0a4,4,0,0,1,4-4.12Z"/><path class="cls-1" d="M20.76,33.83a4,4,0,0,1,3.92-4.08h.17a4.11,4.11,0,0,1,0,8.22h0a4,4,0,0,1-4.09-4Z"/><rect class="cls-2" width="99.98" height="59.14"/></svg>