<svg id="Layer_1" data-name="Layer 1" xmlns="http://www.w3.org/2000/svg" viewBox="0 0 56.38 38.37"><defs><style>.cls-1{fill:#b41d22;}</style></defs><title>arrows</title><path class="cls-1" d="M57.87,22.12h0l-.33-.23-15.48-11s-1.73,1.55-2.81,2.5c0,0,0,0,0,0,.63.52,5.16,5.54,6.13,6.61L1.5,20.25v1.69h0v.37h0V24l43.92.16c-1,1.07-5.5,6.09-6.13,6.61,0,0-.06,0,0,0,1.08,1,2.79,2.48,2.81,2.5l15.48-11,.33-.23h0Z" transform="translate(-1.5 -10.94)"/><path class="cls-1" d="M1.5,38.12h0l.33-.23L17.31,26.94l2.81,2.5s0,0,0,0C19.45,30,14.92,35,14,36.09l43.92.16c0,1.11,0,1.1,0,1.69h0v.37h0c0,.59,0,.58,0,1.69L14,40.16c1,1.07,5.5,6.09,6.13,6.61,0,0,.06,0,0,0l-2.81,2.5-15.48-11-.33-.23h0Z" transform="translate(-1.5 -10.94)"/></svg>