<svg id="Layer_1" data-name="Layer 1" xmlns="http://www.w3.org/2000/svg" viewBox="0 0 150.01 98.88"><title>drivers</title><path d="M151.5,53.69a10.51,10.51,0,0,0-2.15-6.49L137.5,32a10.22,10.22,0,0,0-8-3.82,10,10,0,0,0-5.26,1.47l-11.59,7.21a10.45,10.45,0,0,1-5.33,1.3,9.56,9.56,0,0,1-4.08-.8l-11.35-5.5A13.72,13.72,0,0,0,86,30.61,14.84,14.84,0,0,0,77.64,33l-1.32.93L71.81,31.7a17.09,17.09,0,0,0-7.39-1.52,17.87,17.87,0,0,0-6.78,1.24l-7.73,3.3a15.86,15.86,0,0,1-10.49,0l-7.74-3.3a11.25,11.25,0,0,0-4.41-.86,13.43,13.43,0,0,0-5,1A11.6,11.6,0,0,0,18,34.48L3.83,50.23a9.15,9.15,0,0,0,.71,12.92l.18.16L17.86,74.52,11.63,81a9.3,9.3,0,0,0,.31,13.14h0l1.26,1.2a9.24,9.24,0,0,0,4.12,2.23,9.19,9.19,0,0,0,1.73,11.15h0L20.33,110a9.4,9.4,0,0,0,10.1,1.83,9.2,9.2,0,0,0,2.58,4.5l1.27,1.21a9.38,9.38,0,0,0,11.63,1,9.29,9.29,0,0,0,2.43,4l1.27,1.21a9.4,9.4,0,0,0,13.22-.31l5.51-5.75,7.48,6.93A9.39,9.39,0,0,0,89,124.1l1.19-1.28A9.13,9.13,0,0,0,92.31,119l2.9,2.68a9.41,9.41,0,0,0,13.21-.49l1.19-1.28A9.14,9.14,0,0,0,112,114.8a9.12,9.12,0,0,0,9.17-2.63l1.19-1.28a9.11,9.11,0,0,0,2.23-8.42,9.23,9.23,0,0,0,5.61-2.84l1.19-1.28a9.3,9.3,0,0,0-.48-13.14h0l-2.21-2.09,20.17-22.3A10.59,10.59,0,0,0,151.5,53.69ZM15.5,90.5a4.23,4.23,0,0,1-.17-6l0,0L28.09,71.2a4.28,4.28,0,0,1,6-.14l1.26,1.2a7.86,7.86,0,0,1,1.31,3.06,4.15,4.15,0,0,1-.75,2.39L22.14,92.11a4.27,4.27,0,0,1-2.47.79,4.2,4.2,0,0,1-2.93-1.16Zm11.32,17a4.2,4.2,0,0,1-2.93-1.16l-1.3-1.18h0a4.24,4.24,0,0,1-.14-6h0s17-17.71,17.16-17.89a4.27,4.27,0,0,1,5.87,0l1.27,1.21h0a4.22,4.22,0,0,1,.16,6l0,0-17,17.68a4.19,4.19,0,0,1-3.07,1.34Zm14,7.53a4.2,4.2,0,0,1-2.93-1.16l-1.34-1.2a4.2,4.2,0,0,1-.37-5.69L48,94.56a4.25,4.25,0,0,1,5.77.06L55,95.83h0a4.22,4.22,0,0,1,.16,6l0,0L43.81,113.68A4.2,4.2,0,0,1,40.74,115Zm18.4,4.9a4.27,4.27,0,0,1-6,.14l-1.27-1.21a4.24,4.24,0,0,1-.16-6l0,0,7.19-7.5a4.29,4.29,0,0,1,6-.14l1.27,1.21h0a4.25,4.25,0,0,1,.15,6h0Zm68.53-25-1.2,1.29a4.28,4.28,0,0,1-6,.22L100.4,77.82l-3.47,3.72,21.49,19.91a4.23,4.23,0,0,1,.24,6l0,0-1.19,1.28a4.28,4.28,0,0,1-6,.22L91.37,90.38l-3.48,3.73,17.82,16.48a4.21,4.21,0,0,1,.17,5.92l-1.19,1.28a4.29,4.29,0,0,1-6,.22L80.9,101.55h0l-3.46,3.72h0l.07.06,8.91,8.22a4.19,4.19,0,0,1,.08,5.79l-1.19,1.28a4.26,4.26,0,0,1-6,.22l-7.81-7.17a9.15,9.15,0,0,0-1.84-10.94l-1.27-1.21A9.39,9.39,0,0,0,62,99a2,2,0,0,0-.54.05v-.13c0-2.45-2.89-6.74-2.89-6.74l-1.27-1.2a9.33,9.33,0,0,0-4.7-2.4,9.17,9.17,0,0,0-2.34-9.81l-1.27-1.21A9.37,9.37,0,0,0,42.49,75a7,7,0,0,0-.8.08,9.21,9.21,0,0,0-2.86-6.44h0l-1.26-1.2a9.4,9.4,0,0,0-13.22.31l-3,3.14L8.05,59.46a4.09,4.09,0,0,1-.47-5.76l.07-.09L21.74,37.84a6.49,6.49,0,0,1,2.35-1.59,8.47,8.47,0,0,1,3.1-.61,6.18,6.18,0,0,1,2.41.45l7.73,3.3a20.82,20.82,0,0,0,14.51,0l7.72-3.28a12.82,12.82,0,0,1,4.78-.84,12.11,12.11,0,0,1,5.11,1l2.06,1-7.88,5.54A9.12,9.12,0,0,0,61.38,55.5l.17.23h0l1,1.4a10.16,10.16,0,0,0,8.14,4,9.82,9.82,0,0,0,5.09-1.39L80.5,56.9a7.81,7.81,0,0,1,3.92-1A8.18,8.18,0,0,1,89,57.2l13,9.35a128.39,128.39,0,0,1,10.25,8.36l15.1,14a4.24,4.24,0,0,1,.3,6h0Zm17.4-37.46L125,79.66l-9.13-8.44a134.91,134.91,0,0,0-10.74-8.76l-13-9.35a13.23,13.23,0,0,0-7.62-2.24A13,13,0,0,0,78,52.55l-4.71,2.83a4.71,4.71,0,0,1-2.46.66,5,5,0,0,1-4-1.93l-1-1.4h0a4,4,0,0,1,.74-5.61l.19-.14L80.5,37.11a9.86,9.86,0,0,1,5.39-1.47,8.66,8.66,0,0,1,3.69.73l11.35,5.5a14.66,14.66,0,0,0,6.32,1.31,15.47,15.47,0,0,0,8-2.07l11.59-7.21a4.87,4.87,0,0,1,2.55-.7,5.13,5.13,0,0,1,4,1.86l11.89,15.21a5.53,5.53,0,0,1,1.08,3.37,5.64,5.64,0,0,1-1.29,3.8Z" transform="translate(-1.5 -28.18)"/></svg>