<svg id="Layer_1" data-name="Layer 1" xmlns="http://www.w3.org/2000/svg" viewBox="0 0 92.36 102"><defs><style>.cls-1{fill:#fff;}.cls-2{fill:none;}</style></defs><title>loginW</title><path class="cls-1" d="M45.54,101a113.05,113.05,0,0,1-13-.74,86.19,86.19,0,0,1-16.76-3.39A37.93,37.93,0,0,1,6,92.39a13.49,13.49,0,0,1-4.19-4.08,6.38,6.38,0,0,1-1-3.42A32.32,32.32,0,0,1,27.22,53.21a1.6,1.6,0,0,1,1.38.3,26.58,26.58,0,0,0,12.36,5,36.08,36.08,0,0,0,13.5-.58,27.5,27.5,0,0,0,9.67-4.61,1,1,0,0,1,.66-.15,30.63,30.63,0,0,1,9.07,3A32.35,32.35,0,0,1,88.61,71.54a31.29,31.29,0,0,1,2.61,8.83c.17,1.28.23,2.58.33,3.87a7.43,7.43,0,0,1-2.41,5.9,19.56,19.56,0,0,1-5,3.61,53.75,53.75,0,0,1-15,5c-3.08.6-6.19,1-9.3,1.45A106.72,106.72,0,0,1,45.54,101Z"/><path class="cls-1" d="M45.48,1A24.34,24.34,0,0,1,58.42,4.21a23.86,23.86,0,0,1,11.45,15.6A25.79,25.79,0,0,1,68.64,35a30.72,30.72,0,0,1-6.42,10.29,23.93,23.93,0,0,1-9.52,6.36,19,19,0,0,1-12.25.24,23.88,23.88,0,0,1-10.23-6.61,27.33,27.33,0,0,1-3.92-5.16,29.91,29.91,0,0,1-4.16-12A24.28,24.28,0,0,1,36.54,3,23,23,0,0,1,45.48,1Z"/><rect class="cls-2" width="92.36" height="102"/></svg>