<svg id="Layer_1" data-name="Layer 1" xmlns="http://www.w3.org/2000/svg" viewBox="0 0 199.96 54.31"><defs><style>.cls-1{fill:#231f20;}.cls-2{fill:#ed1c24;}.cls-3{fill:#fff;}.cls-4{fill:none;}</style></defs><title>logo</title><path class="cls-1" d="M192.37,9a31.06,31.06,0,0,0-4.91-.3,17.34,17.34,0,0,0-9.74,2.64c-2.54-1.7-6.21-2.89-11.54-2.89a27.46,27.46,0,0,0-3.51.23,7.33,7.33,0,0,0-5.24-7.13L157,1.47a31,31,0,0,0-7.18-.9c-6.33,0-11,3.24-12.85,8.43a12.22,12.22,0,0,0-1.23-.28,39.72,39.72,0,0,0-6.45-.23c-4.75,0-8.43,1-11.27,3l-.6.46c-3.69-2.48-8.22-3-11.6-3a54.88,54.88,0,0,0-7.25.53h-.2a11.75,11.75,0,0,0-3.84,1.67A19.7,19.7,0,0,0,84.3,8.52,52.5,52.5,0,0,0,78,8.66a14.94,14.94,0,0,0-3.55.91,9.55,9.55,0,0,0-1.83-.51,31.06,31.06,0,0,0-4.91-.3,18.15,18.15,0,0,0-8.65,2,7.41,7.41,0,0,0-2.54-1.35,7.49,7.49,0,0,0-8.28-6.6,8,8,0,0,0-1.09.2l-.47.14L43.14,4.31A9.37,9.37,0,0,0,35,0H25.52l-2,3.07-.24.37-1,1.44L21.07,3.09h0L19.07,0H9.57A9.16,9.16,0,0,0,0,8.6,10,10,0,0,0,0,9.94V54.3H97a10,10,0,0,0,8.94-5,10.14,10.14,0,0,0,1-2.49,3.41,3.41,0,0,1,.13-.53s.12-.61.23-1.26h76.12a8,8,0,0,0,8.22-7.77V28.08h.11a8.11,8.11,0,0,0,8.19-7.82V18.41A9.14,9.14,0,0,0,192.37,9Z" transform="translate(0.01)"/><path class="cls-2" d="M35,7.08H29.62c-.51.78-1.11,1.69-1.8,2.71Q25.68,13,22.4,17.7L18.27,12h0L15,7.08H9.25C8.12,7.19,7.56,8,7.56,9.42V37.84a.23.23,0,0,0,.21.25h4.54c1.33,0,2-.76,2-2.3V18.37l5.76,8.3a.83.83,0,0,0,.65.24h3.1a1.08,1.08,0,0,0,.77-.24l5.6-8.18h0V37.84c0,.16.11.24.32.24H35c1.33,0,2-.76,2-2.3V8.93a1.71,1.71,0,0,0-1.54-1.86A1.77,1.77,0,0,0,35,7.08Z" transform="translate(0.01)"/><path class="cls-3" d="M73.36,19.15v.72a1.16,1.16,0,0,1-1,1.29.87.87,0,0,1-.32,0H67.59c-1.73,0-2.59.69-2.59,2.05V36.79a1.13,1.13,0,0,1-1,1.29.86.86,0,0,1-.32,0H60.22a1.14,1.14,0,0,1-1.29-1,.91.91,0,0,1,0-.33V23.89q0-8.22,8.83-8.22a26.11,26.11,0,0,1,3.75.2c1.23.22,1.85,1.06,1.85,2.54Z" transform="translate(0.01)"/><path class="cls-3" d="M193.07,19.15v.72a1.18,1.18,0,0,1-1,1.3,1.27,1.27,0,0,1-.34,0h-4.39c-1.72,0-2.58.69-2.58,2.06V36.79a1.13,1.13,0,0,1-1,1.29.86.86,0,0,1-.32,0h-3.51a1.14,1.14,0,0,1-1.29-1,.91.91,0,0,1,0-.33V23.89q0-8.22,8.83-8.22a26.11,26.11,0,0,1,3.75.2c1.23.22,1.85,1.06,1.85,2.54v.74Z" transform="translate(0.01)"/><path class="cls-3" d="M176.38,22.28a5.85,5.85,0,0,1-1.73,4.64,8.06,8.06,0,0,1-2.5,1.53,19.91,19.91,0,0,1-3.15.7l-7,1.27a2.91,2.91,0,0,0,2.1,1.85,12.58,12.58,0,0,0,3,.24c1.29,0,2.64-.06,4.07-.2l2.66-.16a1.22,1.22,0,0,1,1.29,1.13v.12l.08,1.93a2.24,2.24,0,0,1-2,2.45H173a49.13,49.13,0,0,1-6.53.28c-3.85,0-6.66-1-8.45-2.86s-2.68-4.79-2.68-8.67.87-6.65,2.6-8.44,4.51-2.68,8.32-2.68Q176.38,15.42,176.38,22.28Zm-6.17.08c0-1.12-1.24-1.69-3.71-1.69-1.91,0-3.21.34-3.91,1s-1.08,1.93-1.13,3.79l5.48-1a11.65,11.65,0,0,0,2.46-.61A1.47,1.47,0,0,0,170.21,22.36Z" transform="translate(0.01)"/><path class="cls-3" d="M94.06,34.93a2.36,2.36,0,0,1-2.17,2.54h0a43.53,43.53,0,0,1-7.9.6q-10.24,0-10.24-7.09,0-4.83,6.25-6.41l4.88-.93a14.94,14.94,0,0,0,3.1-.76h-.08a1.75,1.75,0,0,0-1.36-1.79A9.71,9.71,0,0,0,84,20.85c-1.89,0-3.56.08-5,.22l-2.2.22h-.2a1.18,1.18,0,0,1-1.2-1.16h0V18.23c0-1.5,1.21-2.42,3.63-2.74.4-.05,2.19-.08,5.36-.08q9.75,0,9.75,8.34V34.93ZM88,32.56V28.23l-6.53,1.24A1.54,1.54,0,0,0,79.93,31q0,1.82,4.37,1.81A21.77,21.77,0,0,0,88,32.56Z" transform="translate(0.01)"/><path class="cls-3" d="M139.13,30.86q0,7.23-9.71,7.22a43.63,43.63,0,0,1-7.13-.44c-1.43-.24-2.14-1.2-2.14-2.9V34a3.3,3.3,0,0,0,0-.77,1.1,1.1,0,0,1,1-1.21h.25a3.44,3.44,0,0,0,.64.12l1.77.24a37,37,0,0,0,5.16.32c2.67,0,4-.48,4-1.45,0-.5-1.1-1.07-3.31-1.69l-4.35-1.17a10.62,10.62,0,0,1-3.91-1.9,5.18,5.18,0,0,1-1.69-4.11q0-6.93,9.63-6.93c3,0,4.79,0,5.24.12,2.15.38,3.19,1.43,3.14,3.14v1.41a1.08,1.08,0,0,1-1,1.18.75.75,0,0,1-.26,0h-.16l-.41-.15-1.53-.2a37.22,37.22,0,0,0-4.72-.24c-2.58,0-3.87.42-3.87,1.25,0,.6,1.16,1.15,3.47,1.65a30.37,30.37,0,0,1,6.41,2Q139.13,27.49,139.13,30.86Z" transform="translate(0.01)"/><path class="cls-3" d="M56,37.38a19.59,19.59,0,0,1-5.65.7c-4.75,0-6.6-2-6.6-5.94V20.37H40.82a.63.63,0,0,1-.71-.53.53.53,0,0,1,0-.25V17.36c0-.54,0-.66.66-.83l3-.7L44.12,12a1,1,0,0,1,1-1l3.8-1.24c.5-.12.83.08.83.74V16h4.54c.62,0,.66.25.66.7v2.93c0,.54,0,.78-.66.78H49.7V30.86c0,1.61.78,2.1,2.39,2.1a24.65,24.65,0,0,0,3.09-.29c.45-.08.66,0,.7.41l.5,3.47C56.42,36.92,56.59,37.15,56,37.38Z" transform="translate(0.01)"/><path class="cls-3" d="M103.3,21v16.3c0,.62-.08.74-.87.74H98.18c-.62,0-.87-.12-.87-.74V19.63c0-1.86.45-2.89,2.56-3.34a52.27,52.27,0,0,1,6-.41c7.68,0,11.22,2.89,11.22,10.69V37.33c0,.62-.08.74-.87.74h-4.29c-.62,0-.87-.12-.87-.74V26.15c0-3.59-1.07-5.36-5-5.36A15.91,15.91,0,0,0,103.3,21Z" transform="translate(0.01)"/><path class="cls-3" d="M154.2,12.91a20.43,20.43,0,0,0-2.81-.29c-1.86,0-2.27.83-2.27,1.94v1.86h5c.5,0,.62.12.62.66v3.17c0,.45,0,.66-.7.66h-4.87V37.33c0,.66-.21.74-.83.74H144c-.54,0-.87-.08-.87-.78V20.91h-3c-.62,0-.62-.25-.62-.7V17.86a.76.76,0,0,1,.64-.86h.1l2.89-.66V14c0-3.8,2-6.48,6.73-6.48a24.19,24.19,0,0,1,5.36.66c.62.21.58.41.45.87L155,12.45a.53.53,0,0,1-.5.55A.55.55,0,0,1,154.2,12.91Z" transform="translate(0.01)"/><path class="cls-3" d="M16.55,44.15a.81.81,0,0,1,0,.22L15,49.58a.41.41,0,0,1-.45.31h-1.1a.44.44,0,0,1-.45-.34l-.95-3-1,3.05a.43.43,0,0,1-.45.31H9.51a.42.42,0,0,1-.44-.36l-1.46-5.2a.74.74,0,0,1,0-.21.3.3,0,0,1,.27-.34h.9a.55.55,0,0,1,.61.41l.82,3.43,1-3.49a.45.45,0,0,1,.44-.34h.83a.45.45,0,0,1,.5.34l1,3.5.91-3.44a.54.54,0,0,1,.6-.41h.69a.31.31,0,0,1,.35.27Z" transform="translate(0.01)"/><path class="cls-3" d="M25.82,44.15a.81.81,0,0,1,0,.22l-1.51,5.22a.41.41,0,0,1-.45.31H22.72a.43.43,0,0,1-.44-.35l-1-3-1,3.05a.43.43,0,0,1-.45.31h-1.1a.42.42,0,0,1-.44-.36l-1.47-5.2a.74.74,0,0,1,0-.21.3.3,0,0,1,.27-.34H18a.55.55,0,0,1,.61.41l.82,3.43,1.07-3.49a.45.45,0,0,1,.44-.34h.82a.45.45,0,0,1,.49.34l1,3.5.91-3.44a.54.54,0,0,1,.6-.41h.69a.32.32,0,0,1,.37.24A.4.4,0,0,1,25.82,44.15Z" transform="translate(0.01)"/><path class="cls-3" d="M35.09,44.15a.81.81,0,0,1,0,.22l-1.51,5.22a.41.41,0,0,1-.45.31H32a.43.43,0,0,1-.44-.35l-.95-3-1,3.05a.43.43,0,0,1-.45.31H28.05a.42.42,0,0,1-.44-.36l-1.47-5.2a.74.74,0,0,1,0-.21.31.31,0,0,1,.28-.34h.88a.55.55,0,0,1,.61.41l.82,3.43,1-3.49a.45.45,0,0,1,.44-.34H31a.45.45,0,0,1,.49.34l1,3.5.91-3.44a.57.57,0,0,1,.6-.41h.69a.31.31,0,0,1,.39.2A.26.26,0,0,1,35.09,44.15Z" transform="translate(0.01)"/><path class="cls-3" d="M36.13,48.87a1,1,0,0,1-.73,1.22,1,1,0,0,1-1.21-.73,1,1,0,0,1,0-.49,1,1,0,1,1,1.94-.48A1,1,0,0,1,36.13,48.87Z" transform="translate(0.01)"/><path class="cls-3" d="M44.82,49.54a.31.31,0,0,1-.25.36H43.46a.3.3,0,0,1-.35-.26.17.17,0,0,1,0-.1V46.09a1,1,0,0,0-.11-.66.89.89,0,0,0-.65-.18,3.22,3.22,0,0,0-.76.09v4.2a.31.31,0,0,1-.25.36H40.23a.31.31,0,0,1-.36-.25.2.2,0,0,1,0-.11V46a.76.76,0,0,0-.2-.62,1.4,1.4,0,0,0-.67-.11,3.84,3.84,0,0,0-.76.08v4.21a.31.31,0,0,1-.25.36H36.88a.3.3,0,0,1-.35-.26.17.17,0,0,1,0-.1V44.62a.66.66,0,0,1,.6-.7h0a12,12,0,0,1,2.07-.2,3.72,3.72,0,0,1,1.4.24,7.46,7.46,0,0,1,1.63-.24c1.69,0,2.53.74,2.53,2.21v3.6Z" transform="translate(0.01)"/><path class="cls-3" d="M88.83,48.87a1,1,0,0,1-.73,1.22,1,1,0,0,1-1.21-.73,1,1,0,0,1,0-.49,1,1,0,0,1,1.94-.48A1,1,0,0,1,88.83,48.87Z" transform="translate(0.01)"/><path class="cls-3" d="M91.23,49.55a.31.31,0,0,1-.27.35h-1a.33.33,0,0,1-.38-.25V42.15a.7.7,0,0,1,.59-.78h.73a.32.32,0,0,1,.36.26v7.92Z" transform="translate(0.01)"/><path class="cls-3" d="M98.45,44.15a.48.48,0,0,1-.06.24l-2,5.22a.37.37,0,0,1-.41.33H94.77a.53.53,0,0,1-.49-.27l-1.92-5.28a.48.48,0,0,1-.06-.24.3.3,0,0,1,.28-.33h.93a.81.81,0,0,1,.69.34l1.22,3.74,1.24-3.74a.74.74,0,0,1,.61-.34h.81a.32.32,0,0,1,.37.25Z" transform="translate(0.01)"/><path class="cls-3" d="M54.27,44.57v.2a.33.33,0,0,1-.28.36h-1.3a.57.57,0,0,0-.69.42.39.39,0,0,0,0,.15v3.74a.32.32,0,0,1-.26.36h-1.1a.3.3,0,0,1-.35-.26V45.88c0-1.5.81-2.26,2.43-2.26a8.37,8.37,0,0,1,1,.05.62.62,0,0,1,.51.7h0v.21Z" transform="translate(0.01)"/><path class="cls-3" d="M87.37,44.57v.2a.32.32,0,0,1-.25.38H85.79a.57.57,0,0,0-.69.42.39.39,0,0,0,0,.15v3.74a.32.32,0,0,1-.26.36h-1.1a.3.3,0,0,1-.35-.26V45.88c0-1.5.81-2.26,2.43-2.26a8.37,8.37,0,0,1,1,.05.62.62,0,0,1,.51.7h0v.21Z" transform="translate(0.01)"/><path class="cls-3" d="M82.78,45.51a1.6,1.6,0,0,1-.48,1.28,2.13,2.13,0,0,1-.69.42,5.11,5.11,0,0,1-.86.2l-1.94.34a.79.79,0,0,0,.58.51,3.21,3.21,0,0,0,.82.07,11.09,11.09,0,0,0,1.12-.06h.73a.33.33,0,0,1,.35.31v.56a.61.61,0,0,1-.54.68H81.8a12.05,12.05,0,0,1-1.8.08,3,3,0,0,1-2.32-.79,3.36,3.36,0,0,1-.74-2.38,3.26,3.26,0,0,1,.72-2.32A3.13,3.13,0,0,1,80,43.67C81.84,43.64,82.78,44.25,82.78,45.51Zm-1.7,0c0-.31-.33-.47-1-.47a1.66,1.66,0,0,0-1.08.27,1.51,1.51,0,0,0-.31,1L80.2,46a3.22,3.22,0,0,0,.68-.17.4.4,0,0,0,.21-.33Z" transform="translate(0.01)"/><path class="cls-3" d="M60,49a.65.65,0,0,1-.6.7h0a11.28,11.28,0,0,1-2.17.17c-1.88,0-2.82-.66-2.82-2,0-.88.57-1.47,1.72-1.76l1.34-.25a4.22,4.22,0,0,0,.85-.21h0a.48.48,0,0,0-.42-.49,2.73,2.73,0,0,0-.7,0c-.52,0-1,0-1.39.06l-.61.06h-.06a.32.32,0,0,1-.33-.31h0v-.52c0-.32.33-.67,1-.75h1.47c1.79,0,2.68.77,2.68,2.29V49Zm-1.67-.65V47.15l-1.79.34a.42.42,0,0,0-.42.42c0,.34.4.5,1.2.5a5.32,5.32,0,0,0,1-.07Z" transform="translate(0.01)"/><path class="cls-3" d="M72.54,47.87c0,1.34-.89,2-2.67,2a11.14,11.14,0,0,1-2-.12.69.69,0,0,1-.59-.79h0v-.2a.74.74,0,0,0,0-.21.3.3,0,0,1,.17-.38.3.3,0,0,1,.21,0h.18l.49.07a8.47,8.47,0,0,0,1.42.09c.73,0,1.1-.13,1.1-.4a1.24,1.24,0,0,0-.91-.47l-1.2-.29a2.92,2.92,0,0,1-1.08-.52,1.41,1.41,0,0,1-.47-1.13c0-1.27.88-1.91,2.65-1.91h1.44a.86.86,0,0,1,.86.84v.41a.3.3,0,0,1-.28.32,0,0,0,0,1,0,0h-.58a11.33,11.33,0,0,0-1.3-.07c-.71,0-1.06.12-1.06.34a1.14,1.14,0,0,0,1,.45,8.76,8.76,0,0,1,1.76.54A1.6,1.6,0,0,1,72.54,47.87Z" transform="translate(0.01)"/><path class="cls-3" d="M49.49,49.7a5.4,5.4,0,0,1-1.55.19c-1.31,0-1.82-.56-1.82-1.63V45h-.79a.17.17,0,0,1-.2-.14.25.25,0,0,1,0-.08v-.65c0-.15,0-.18.18-.23l.84-.19.08-1.07a.28.28,0,0,1,.26-.28l1-.34c.14,0,.23,0,.23.2v1.52H49c.17,0,.18.07.18.19v.81c0,.15,0,.22-.18.22H47.77v2.88a.54.54,0,0,0,.46.6.46.46,0,0,0,.2,0,6.11,6.11,0,0,0,.85-.08c.12,0,.18,0,.19.11l.14,1C49.62,49.57,49.66,49.64,49.49,49.7Z" transform="translate(0.01)"/><path class="cls-3" d="M62.68,45.08v4.48c0,.17,0,.2-.24.2H61.28c-.17,0-.24,0-.24-.2V44.69a.77.77,0,0,1,.6-.9l.1,0a15.24,15.24,0,0,1,1.65-.11c2.11,0,3.09.79,3.09,2.94v3c0,.17,0,.2-.24.2H65.05c-.17,0-.24,0-.24-.2V46.5c0-1-.3-1.48-1.36-1.48A4.9,4.9,0,0,0,62.68,45.08Z" transform="translate(0.01)"/><path class="cls-3" d="M76.68,42.84a6.48,6.48,0,0,0-.77-.08c-.51,0-.62.23-.62.53v.51h1.36c.14,0,.17,0,.17.18v.87c0,.12,0,.18-.19.18H75.29v4.52c0,.18-.06.2-.23.2H73.88c-.15,0-.24,0-.24-.22V45h-.83c-.17,0-.17-.07-.17-.19V44.2a.2.2,0,0,1,.18-.23h0l.79-.18v-.63a1.63,1.63,0,0,1,1.46-1.78,1.7,1.7,0,0,1,.39,0,7.31,7.31,0,0,1,1.48.18c.17.06.16.11.12.24l-.19.94a.14.14,0,0,1-.15.13Z" transform="translate(0.01)"/><rect class="cls-4" x="0.01" width="199.95" height="54.31"/></svg>