<svg id="Layer_1" data-name="Layer 1" xmlns="http://www.w3.org/2000/svg" viewBox="0 0 145.38 144.95"><title>prem</title><path d="M131.47,130.45l-22-38.18,7.15-3.44a2.09,2.09,0,0,0,1.15-1.44l2.53-11.1,7.08-8.91a2.13,2.13,0,0,0,.42-1.8l-2.53-11.1,2.55-11.06a2.11,2.11,0,0,0-.44-1.84l-7.09-8.9-2.53-11.1a2.15,2.15,0,0,0-1.14-1.42l-10.25-4.95-7.1-8.93a2.15,2.15,0,0,0-1.67-.8H86.17L76,.55a2.08,2.08,0,0,0-1.85,0L63.85,5.49H52.42a2.13,2.13,0,0,0-1.66.8l-7.1,8.9-10.25,5a2.13,2.13,0,0,0-1.16,1.44L29.71,32.67l-7.06,8.91a2.11,2.11,0,0,0-.44,1.84l2.53,11.1L22.21,65.58a2.1,2.1,0,0,0,.44,1.8l7.09,8.9,2.53,11.1a2.15,2.15,0,0,0,1.15,1.44l7.16,3.44L18.51,130.45a2.14,2.14,0,0,0,2.4,3.11L34.39,130,38,143.43a2.15,2.15,0,0,0,3.88.51L65,104,74,108.36a2.14,2.14,0,0,0,1.85,0L85,104,108,143.93a2.15,2.15,0,0,0,3.88-.52l3.62-13.48,13.56,3.63a2.15,2.15,0,0,0,2.6-1.58A2.2,2.2,0,0,0,131.47,130.45ZM40.8,137.37,38,126.78a2.15,2.15,0,0,0-2.62-1.51l-10.57,2.86L44.16,94.46l6.6,8.2a2.11,2.11,0,0,0,1.66.81h7.95Zm44-38L75,104.12l-9.77-4.71a2.32,2.32,0,0,0-1-.21H53.45l-6.78-8.48a2.26,2.26,0,0,0-.75-.59l-9.7-4.7L33.8,74.85a2.1,2.1,0,0,0-.41-.85L26.6,65.52,29,55a2,2,0,0,0,0-1L26.59,43.42l6.79-8.48a2.08,2.08,0,0,0,.41-.86l2.43-10.55,9.69-4.7a2.12,2.12,0,0,0,.78-.61l6.79-8.48H64.33a2.22,2.22,0,0,0,1-.22L75,4.84l9.77,4.7a2,2,0,0,0,1,.21H96.57l6.79,8.49a2.16,2.16,0,0,0,.75.59l9.65,4.7,2.41,10.57a2.23,2.23,0,0,0,.42.86l6.79,8.48L121,54a2.27,2.27,0,0,0,0,1l2.42,10.58L116.59,74a2.26,2.26,0,0,0-.42.85l-2.41,10.54-9.69,4.7a2.16,2.16,0,0,0-.75.59L96.54,99.2H85.65A2,2,0,0,0,84.76,99.41Zm29.86,25.88A2.14,2.14,0,0,0,112,126.8l-2.83,10.57L89.6,103.45h7.94a2.13,2.13,0,0,0,1.67-.81l6.54-8.2,19.39,33.67Z" transform="translate(-2.31 0)"/><path d="M115.82,54.48a40.54,40.54,0,0,0-12.47-29.37,2.14,2.14,0,0,0-3,3.07,36.45,36.45,0,1,1-8.19-6,2.13,2.13,0,1,0,2-3.76,40.82,40.82,0,1,0,21.61,36Z" transform="translate(-2.31 0)"/><path d="M54.5,31.85a2.16,2.16,0,0,0-1.71.91L46,41.86a2.12,2.12,0,0,0-.43,1.28v9.1a2.15,2.15,0,0,0,.51,1.39L73.4,85.48a2.16,2.16,0,0,0,3,.21,2.18,2.18,0,0,0,.22-.21L104,53.63a2.15,2.15,0,0,0,.51-1.39V43.1a2.18,2.18,0,0,0-.42-1.28l-6.79-9.1a2.12,2.12,0,0,0-1.7-.86H54.5Zm26.25,4.27L84.37,41H65.6l3.62-4.85ZM86.5,50.06h-23V45.21H86.51v4.85Zm-1.1,4.26L75,78.65,64.57,54.33H85.4ZM59.23,50.06H49.79V45.21h9.39v4.85ZM60,54.32l7.61,17.76L52.32,54.33H60Zm30.13,0h7.61L82.47,72.08Zm10.11-4.25H90.8V45.22h9.39Zm-44.59-14h8.33L60.3,41H51.94ZM98.07,41H89.74l-3.62-4.85h8.25Z" transform="translate(-2.31 0)"/><path d="M22.65,81.65a2.14,2.14,0,0,0,0-4.27c-3.3,0-7-5.67-7-13.8a2.14,2.14,0,0,0-4.27,0h0c0,8.13-3.67,13.8-7,13.8a2.14,2.14,0,0,0,0,4.27h0c3.3,0,7,5.67,7,13.8a2.14,2.14,0,0,0,4.27,0C15.67,87.32,19.34,81.65,22.65,81.65Zm-9.11,3.08a14.61,14.61,0,0,0-3.72-5.21,14.74,14.74,0,0,0,3.72-5.22,14.89,14.89,0,0,0,3.73,5.22,14.79,14.79,0,0,0-3.74,5.21Z" transform="translate(-2.31 0)"/><path d="M145.55,109.24c-2.55,0-4.69-3.19-4.69-7a2.13,2.13,0,0,0-4.26,0h0c0,3.78-2.15,7-4.69,7a2.14,2.14,0,1,0,0,4.27h0c2.55,0,4.69,3.19,4.69,7a2.13,2.13,0,1,0,4.26,0h0c0-3.78,2.15-7,4.69-7a2.14,2.14,0,0,0,0-4.27Zm-6.78,4a9.85,9.85,0,0,0-1.58-1.83,9.92,9.92,0,0,0,1.58-1.84,9.92,9.92,0,0,0,1.58,1.84,9.8,9.8,0,0,0-1.63,1.83Z" transform="translate(-2.31 0)"/><path d="M118.24,13.37c2.55,0,4.69,3.19,4.69,7a2.13,2.13,0,1,0,4.26,0h0c0-3.78,2.16-7,4.7-7a2.13,2.13,0,1,0,0-4.26c-2.55,0-4.7-3.19-4.7-7a2.13,2.13,0,1,0-4.26,0h0c0,3.78-2.15,7-4.69,7a2.13,2.13,0,1,0,0,4.26Zm6.78-4a11.05,11.05,0,0,0,1.58,1.83A10.66,10.66,0,0,0,125,13.07a10.19,10.19,0,0,0-1.57-1.84,10.36,10.36,0,0,0,1.61-1.83Z" transform="translate(-2.31 0)"/></svg>