<svg id="Layer_1" data-name="Layer 1" xmlns="http://www.w3.org/2000/svg" viewBox="0 0 149.73 100.21"><defs><style>.cls-1{fill:none;}</style></defs><title>prof</title><path class="cls-1" d="M113.07,76.71h.45c4.35,0,9.54-3.07,9.88-11.71h0c.34-8.63-4.46-12.69-9.36-12.88h-.44c-6.28,0-11.41,5.2-11.67,11.84a12.48,12.48,0,0,0,3.1,8.87A11.23,11.23,0,0,0,113.07,76.71Zm-7.95-17.26a2.5,2.5,0,0,1,4.89,1c-.05.1-1.5,7.72,3,9.29l0,0a2.5,2.5,0,1,1-1.65,4.71,9,9,0,0,1-4.85-4,12.53,12.53,0,0,1-1.62-5A20.46,20.46,0,0,1,105.12,59.45Z" transform="translate(-0.14 -19.58)"/><path class="cls-1" d="M129,96.21,128.66,92c-5.7-.33-34.47-1.65-76.06,2.49h-.25a2.5,2.5,0,1,1-.24-5c24.46-2.44,44.33-3,56.69-3h.8c9.44,0,15.84.28,18.74.44l-.83-12-1.81-.33a16.38,16.38,0,0,1-1.41,2,13.64,13.64,0,0,1-10.78,5h-.64a16.17,16.17,0,0,1-11.58-5.56,16.6,16.6,0,0,1-2.15-3c-23.09.37-48.64,4.55-76.09,12.43l1.74,12a1.49,1.49,0,0,0,.62,1,1.55,1.55,0,0,0,1.18.28,125.85,125.85,0,0,1,25.34-1.92v-.08h0C52.16,96.81,73,98,94.25,98,109.55,98,121.2,97.41,129,96.21Z" transform="translate(-0.14 -19.58)"/><path class="cls-1" d="M94.26,103.07c-12.65,0-25.17-.42-33.32-.77,14.9,8.28,35.23,12.47,60.59,12.47,2.87,0,5.45,0,7.71-.11L123.48,102C116,102.7,106.17,103.07,94.26,103.07Z" transform="translate(-0.14 -19.58)"/><path class="cls-1" d="M128.66,101.34l6,13.15h1.94c1.57,0,2.08-.35,2.08-.42l0,0c.42-1-1.49-5.89-8-13Z" transform="translate(-0.14 -19.58)"/><path class="cls-1" d="M140,27.66c-7.32-5.31-27.09-6.29-79.78,19.12-20.88,10.07-34.17,19-41.64,24.72C8.62,79.15,5.62,83.62,5.18,85c.48.32,2.24,1.15,7.6,1.25,2,0,4,0,5.31-.12l-.29-2a2.49,2.49,0,0,1,1.77-2.75v0c28-8.2,54.1-12.63,77.74-13.2a17.81,17.81,0,0,1-.36-4.37c.38-9.54,8-17,17.29-16.62A13.74,13.74,0,0,1,125.08,53a19.85,19.85,0,0,1,3.3,12.25,23.17,23.17,0,0,1-.7,4.83l1.38.27c3.33-3.68,14.12-16.31,15.5-26.56C145.63,35.92,144.14,30.66,140,27.66Z" transform="translate(-0.14 -19.58)"/><path d="M111.39,74.4A2.5,2.5,0,1,0,113,69.69l0,0c-4.5-1.57-3.05-9.19-3-9.29a2.5,2.5,0,0,0-4.89-1,20.46,20.46,0,0,0-.2,6,12.53,12.53,0,0,0,1.62,5A9,9,0,0,0,111.39,74.4Z" transform="translate(-0.14 -19.58)"/><path d="M143,23.59c-12.41-9-40.17-2.9-84.87,18.66-21.91,10.57-35.7,20-43.41,26C7.67,73.68-.49,81.14.18,85.79.82,90.24,7,91,11.61,91.17A65.46,65.46,0,0,0,18.8,91l1,7.19a6.54,6.54,0,0,0,6.46,5.6,6.24,6.24,0,0,0,1.13-.1,122.24,122.24,0,0,1,23.55-1.88c16.16,11.9,39.89,17.94,70.57,17.94,4.27,0,7.89-.11,10.79-.19,1.8,0,3.23-.1,4.27-.1,4.29,0,6-1.87,6.66-3.43,2.22-5.16-4.54-13.69-9.22-18.73L132.45,74c3.24-3.52,15.42-17.47,17.05-29.59h0C150.81,34.7,148.61,27.69,143,23.59Zm-91,73.2v.08a125.85,125.85,0,0,0-25.34,1.92,1.55,1.55,0,0,1-1.18-.28,1.49,1.49,0,0,1-.62-1l-1.74-12c27.45-7.88,53-12.06,76.09-12.43a16.6,16.6,0,0,0,2.15,3,16.17,16.17,0,0,0,11.58,5.56h.64a13.64,13.64,0,0,0,10.78-5,16.38,16.38,0,0,0,1.41-2l1.81.33.83,12c-2.9-.16-9.3-.44-18.74-.44h-.8c-12.36,0-32.23.56-56.69,3a2.5,2.5,0,1,0,.24,5h.25C94.19,90.39,123,91.71,128.66,92l.29,4.17c-7.75,1.2-19.4,1.8-34.7,1.8C73,98,52.16,96.81,52,96.79ZM102,64c.26-6.64,5.39-11.84,11.67-11.84h.44c4.9.19,9.7,4.25,9.36,12.88h0c-.34,8.64-5.53,11.71-9.88,11.71h-.45a11.23,11.23,0,0,1-8-3.88A12.48,12.48,0,0,1,102,64Zm19.56,50.81c-25.36,0-45.69-4.19-60.59-12.47,8.15.35,20.67.77,33.32.77,11.91,0,21.69-.37,29.22-1.1l5.76,12.69C127,114.72,124.4,114.77,121.53,114.77Zm17.13-.74,0,0c0,.07-.51.42-2.08.42h-1.94l-6-13.15,2-.31C137.17,108.14,139.08,113,138.66,114Zm5.9-70.24c-1.38,10.25-12.17,22.88-15.5,26.56l-1.38-.27a23.17,23.17,0,0,0,.7-4.83A19.85,19.85,0,0,0,125.08,53a13.74,13.74,0,0,0-10.85-5.83C105,46.8,97.32,54.25,96.94,63.79a17.81,17.81,0,0,0,.36,4.37c-23.64.57-49.77,5-77.74,13.2v0a2.49,2.49,0,0,0-1.77,2.75l.29,2c-1.36.08-3.3.16-5.31.12-5.36-.1-7.12-.93-7.6-1.25.44-1.34,3.44-5.81,13.43-13.46,7.47-5.72,20.76-14.65,41.64-24.72C112.94,21.37,132.71,22.35,140,27.66,144.14,30.66,145.63,35.92,144.56,43.79Z" transform="translate(-0.14 -19.58)"/></svg>