<svg id="Layer_1" data-name="Layer 1" xmlns="http://www.w3.org/2000/svg" viewBox="0 0 130.27 221.84"><title>swipe</title><path d="M75.85,93c.33-4.45-.28-8.33,1.29-12.3a24.49,24.49,0,0,0-6.51-26.92,25.09,25.09,0,0,0-27.2-4.37,24.62,24.62,0,0,0-14.67,23.5,20.27,20.27,0,0,0,1.42,7.54c1.79,4,1.09,8,1.3,12.19-6.55-5.26-10-17.34-7.6-27.51,2.93-12.32,13.82-22.1,26-23.28,13.88-1.35,26.3,5.65,31.73,17.88C86.56,70.85,84.22,85.27,75.85,93Z" transform="translate(-1.15)"/><path d="M50.85,25.75V4.34c0-.76-.2-1.74.18-2.22C51.75,1.21,52.79.06,53.76,0c.81,0,1.9,1.18,2.51,2.08.4.59.19,1.62.19,2.45V26.15c.72-.57,1.18-.86,1.56-1.24,3.29-3.27,6.55-6.56,9.85-9.82,1.57-1.55,3.17-1.72,4.39-.53s1.11,2.86-.41,4.4Q64,26.9,56.05,34.76c-1.66,1.65-3.11,1.68-4.74.06-5.35-5.29-10.65-10.63-16-16-1.3-1.3-1.67-2.74-.36-4.23,1.12-1.27,2.86-1.13,4.38.39C43,18.61,46.58,22.29,50.2,26Z" transform="translate(-1.15)"/><path d="M40.85,154.37V86.55c0-5.22-.08-10.44,0-15.65C41,61.31,46.5,55.07,54.57,55.22c7.82.15,12.76,6.1,12.84,15.81.1,11.43,0,22.85,0,35,9.65-4.49,17.64-3.49,23.16,5.65,13-4.28,18.81-1.77,23.3,9.91,13.45-.41,18.15,3.77,17.49,17-.81,16.4-1.43,32.91-3.85,49.11-3,20.37-18.16,32.68-38.61,34-16,1-30.43-3.22-42-14.31C32.79,194,19.25,180,5.85,165.9c-6.72-7.07-6-16.77.7-23.18s16.22-6,23.2.77C33.18,146.81,36.57,150.19,40.85,154.37Zm6-39.6H47c0,14.85.07,29.71-.08,44.56,0,2-1.1,4-1.69,6-2-1-4.29-1.69-5.83-3.17-4.62-4.46-8.85-9.31-13.37-13.87-4.83-4.87-10.49-5.32-15-1.4-4.75,4.15-5.23,10.33-.33,15.42,13.2,13.74,26.39,27.54,40.27,40.58a45.34,45.34,0,0,0,18,10.44c28.81,8.11,49.35-2.28,53.56-30.82,2.27-15.41,2.06-31.19,3-46.8.29-4.92-2.09-7.74-6.85-8-5.3-.34-5.09,3.5-5.26,7.32-.07,1.53-1.76,3-2.71,4.47-1-1.43-2.83-2.78-3-4.31-.46-4,0-8-.28-12-.29-4.76-3.25-7.45-7.81-7.47s-7.37,2.78-8,7.42c-.2,1.58.34,3.37-.21,4.76s-2.07,2.33-3.16,3.48c-.9-1.13-2.42-2.18-2.57-3.4-.38-3.17-.1-6.41-.18-9.62-.12-5.22-2.81-8.32-8-8.74a9.24,9.24,0,0,0-10,8.37c-.25,2.79.19,5.66-.27,8.4-.2,1.19-1.87,2.14-2.88,3.2-1-1.09-2.3-2-2.81-3.3s-.14-2.77-.14-4.17V72.74c0-2.18.21-4.8-.87-6.42-1.38-2.07-3.92-4.53-6-4.61s-5,2.09-6.45,4.09c-1.22,1.72-1.11,4.57-1.12,6.93-.16,14-.08,28-.08,42.05Z" transform="translate(-1.15)"/></svg>