<svg id="Layer_1" data-name="Layer 1" xmlns="http://www.w3.org/2000/svg" viewBox="0 0 141.21 180.2"><defs><style>.cls-1{fill:#fff;}</style></defs><title>swipe</title><path class="cls-1" d="M23.46,45.69c1.19-1.22,1-2.82-.53-4.39-3.26-3.3-6.55-6.56-9.82-9.85-.38-.38-.67-.84-1.24-1.56H33.5c.47,0,1,.06,1.48.05-.55,8.92,2.75,18.24,8.29,22.69-.21-4.19.49-8.19-1.3-12.19a20.48,20.48,0,0,1-1.42-7.54A24.62,24.62,0,0,1,55.22,9.4a25.06,25.06,0,0,1,27.2,4.37,24.49,24.49,0,0,1,6.51,26.92c-1.57,4-1,7.85-1.29,12.3,6-5.49,8.87-14.41,8.24-23.12h21.55l.23.65c-3.69,3.62-7.37,7.22-11,10.87-1.52,1.52-1.66,3.26-.39,4.38,1.49,1.31,2.93.94,4.23-.36,5.37-5.35,10.71-10.65,16-16,1.62-1.63,1.59-3.08-.06-4.74q-7.87-7.94-15.8-15.8c-1.54-1.52-3.21-1.63-4.4-.41s-1,2.82.53,4.39c3.26,3.3,6.55,6.56,9.82,9.85.38.38.67.84,1.24,1.56H96.21c-.39,0-.83-.05-1.24-.06a29.36,29.36,0,0,0-1.57-4.48C88,7.49,75.55.49,61.67,1.84,49.72,3,39,12.44,35.86,24.44c-.49-.34-1.43-.16-2.17-.16H12.28L12,23.63c3.69-3.62,7.37-7.22,11-10.87,1.52-1.52,1.66-3.26.39-4.38-1.49-1.31-2.93-.94-4.23.36-5.37,5.35-10.71,10.65-16,16-1.62,1.63-1.59,3.08.06,4.74q7.88,7.92,15.8,15.8C20.6,46.8,22.27,46.91,23.46,45.69Z" transform="translate(-2 -1.67)"/><path class="cls-1" d="M125.66,81.62c-4.49-11.68-10.3-14.19-23.3-9.91-5.52-9.14-13.51-10.14-23.16-5.65,0-12.15.1-23.57,0-35-.08-9.71-5-15.66-12.84-15.81-8.07-.15-13.58,6.09-13.72,15.68-.08,5.21,0,10.43,0,15.65V114.4c-4.25-4.18-7.62-7.56-11-10.94-7-6.77-16.5-7.18-23.2-.77s-7.42,16.11-.7,23.18c13.4,14.11,26.94,28.11,41,41.55,11.57,11.09,26,15.31,42,14.31,20.45-1.32,35.61-13.63,38.61-34,2.42-16.2,3-32.71,3.85-49.11C143.81,85.39,139.11,81.21,125.66,81.62Zm11.63,14.12c-.94,15.61-.73,31.39-3,46.8-4.21,28.54-24.75,38.93-53.56,30.82a45.46,45.46,0,0,1-18-10.44c-13.88-13-27.07-26.84-40.27-40.58-4.9-5.09-4.42-11.27.33-15.42,4.51-3.92,10.17-3.47,15,1.4,4.52,4.56,8.75,9.41,13.37,13.87,1.54,1.48,3.83,2.17,5.83,3.17.59-2,1.69-4,1.69-6,.15-14.85.08-29.71.08-44.56h-.13c0-14,0-28.1.09-42,0-2.36-.1-5.21,1.12-6.93,1.45-2,4.37-4.17,6.45-4.09s4.62,2.54,6,4.61c1.08,1.62.87,4.24.87,6.42V82.15c0,1.4-.37,2.87.14,4.17s1.81,2.21,2.81,3.3c1-1.06,2.68-2,2.88-3.2.46-2.74,0-5.61.27-8.4a9.24,9.24,0,0,1,10-8.37c5.19.42,7.88,3.52,8,8.74.08,3.21-.2,6.45.18,9.62.15,1.22,1.67,2.27,2.57,3.4,1.09-1.15,2.61-2.09,3.16-3.48s0-3.18.21-4.76c.63-4.64,3.44-7.44,8-7.42s7.52,2.71,7.81,7.47c.28,4-.18,8,.28,12,.17,1.53,2,2.88,3,4.31,1-1.47,2.64-2.94,2.71-4.47.17-3.82,0-7.66,5.26-7.32C135.2,88,137.58,90.82,137.29,95.74Z" transform="translate(-2 -1.67)"/></svg>